<svg width="1253" height="378" viewBox="0 0 1253 378" fill="none" xmlns="http://www.w3.org/2000/svg">
<path d="M303.647 116.326C304.357 101.973 305.068 88.093 305.826 73.787C277.451 71.3237 251.87 74.9714 228.659 89.7037C204.973 104.72 193.178 127.079 190.857 154.981C190.336 154.839 189.815 154.744 189.246 154.602C188.346 150.291 187.351 146.028 186.641 141.669C183.656 123.905 174.987 109.41 161.582 97.7093C158.55 95.1039 157.46 92.7827 159.023 88.993C161.155 83.8296 162.86 78.4767 165.324 71.6553C174.229 79.9452 182.046 87.2404 190.241 94.8671C192.657 92.2617 195.357 89.1826 198.247 86.293C219.232 65.2603 245.096 54.2702 274.277 52.1385C289.435 51.049 304.831 52.9438 320.084 53.7965C321.695 53.8912 324.253 55.9282 324.537 57.3967C328.374 79.0452 328.611 100.694 323.495 122.2C323.4 122.532 323.069 122.816 322.595 123.479C316.058 121.016 309.473 118.505 303.647 116.326Z" fill="white"/>
<path d="M0 188.71C13.5007 169.051 29.2752 152.518 49.8341 140.107C52.9132 146.881 55.8503 153.324 58.5031 159.103C47.8446 168.719 37.5177 178.004 26.7645 187.668C45.0971 209.269 65.656 224.806 92.4679 230.823C120.18 237.075 144.386 229.401 165.893 211.116C166.177 211.543 166.461 212.016 166.746 212.443C164.709 215.474 162.766 218.601 160.587 221.538C149.313 236.791 144.387 253.892 145.713 272.746C145.997 276.82 144.718 279.141 141.213 280.704C136.239 282.931 131.359 285.299 124.917 288.283C124.917 276.299 124.917 265.688 124.917 254.413C69.1141 258.44 30.8858 231.059 0 188.71Z" fill="#039D55"/>
<path d="M125.154 55.3603C122.453 62.3712 119.99 68.861 117.716 74.735C103.505 74.0244 89.6254 73.3612 75.2246 72.6506C72.6192 100.836 76.4562 126.322 91.0465 149.534C106.158 173.598 128.848 185.156 156.939 187.572C156.797 188.046 156.655 188.52 156.513 188.994C152.439 189.846 148.365 190.794 144.244 191.457C125.864 194.394 110.848 203.252 98.768 217.132C96.352 219.879 94.2677 220.732 90.9991 219.5C85.5988 217.464 80.1038 215.521 73.1403 212.963C81.4302 204.058 88.7253 196.194 96.0678 188.33C90.6675 182.646 84.2724 176.961 79.0616 170.329C57.3658 142.712 50.7339 110.689 52.8655 76.3456C53.1971 71.0874 54.2393 65.8292 54.5236 60.5237C54.7604 55.834 56.5605 53.7022 61.4871 53.039C81.146 50.3863 100.71 49.8652 120.227 53.9865C121.695 54.4128 123.117 54.8392 125.154 55.3603Z" fill="white"/>
<path d="M142.113 328.264C148.46 325.422 154.666 322.627 160.54 319.974C169.967 330.443 179.394 340.864 189.105 351.618C210.753 333.38 226.243 312.726 232.307 285.962C238.56 258.25 230.933 234.043 212.553 212.584C213.027 212.3 213.453 211.968 213.927 211.684C216.817 213.626 219.801 215.426 222.596 217.511C237.944 228.927 255.187 234.043 274.277 232.622C278.067 232.338 280.388 233.285 281.952 236.743C284.273 241.907 286.736 246.975 289.863 253.607C277.925 253.607 267.266 253.607 256.419 253.607C256.182 255.407 255.85 256.497 255.898 257.539C258.835 298.136 242.444 330.822 214.211 358.439C207.627 364.881 200.095 370.424 192.8 376.156C191.663 377.056 189.01 377.53 188.015 376.819C169.777 363.887 153.718 348.823 142.207 329.448C142.113 329.259 142.16 329.022 142.113 328.264Z" fill="#039D55"/>
<path d="M91.758 123.148C102.274 123.148 112.791 123.148 123.497 123.148C123.733 121.443 124.065 120.543 123.97 119.69C120.986 80.2774 136.381 48.0651 163.43 20.7321C170.583 13.5317 178.873 7.37365 186.831 1.02595C188.063 0.0785366 191 -0.395195 192.09 0.41011C210.28 13.1055 225.912 28.3116 237.566 47.3547C237.755 47.6389 237.613 48.0652 237.708 48.8232C231.502 51.6181 225.155 54.4603 219.281 57.0657C209.901 46.6441 200.616 36.3171 190.811 25.4692C169.115 43.5175 153.767 64.1239 147.608 90.8411C141.213 118.6 148.887 142.854 167.173 164.313C166.746 164.645 166.367 164.977 165.941 165.308C163.904 163.982 161.772 162.75 159.83 161.234C143.203 148.539 124.586 142.523 103.601 144.228C102.227 144.323 100.001 143.565 99.4321 142.475C96.2582 136.743 93.5107 130.822 90.5737 124.948C91.0001 124.332 91.379 123.717 91.758 123.148Z" fill="#039D55"/>
<path d="M283.372 189.041C308.005 208.984 321.127 235.511 325.769 266.634C328.374 284.256 327.569 301.784 324.585 319.216C324.348 320.685 322.785 322.627 321.411 323.053C306.394 327.601 270.108 326.559 254.807 321.3C257.271 314.811 259.734 308.368 262.339 301.546C269.208 302.352 276.124 303.441 283.041 303.868C290.004 304.247 297.015 303.962 304.594 303.962C307.247 276.203 303.41 250.765 288.82 227.506C273.661 203.347 251.018 191.741 223.069 188.141C227.759 187.146 232.401 185.962 237.091 185.156C254.855 182.172 269.256 173.314 280.909 159.86C283.23 157.16 285.314 156.26 288.63 157.492C294.031 159.529 299.526 161.376 306.679 163.934C298.389 172.887 291.141 180.703 283.372 189.041Z" fill="white"/>
<path d="M190.621 222.486C191.663 228.028 192.611 233.618 193.843 239.113C197.538 255.361 205.97 268.814 218.57 279.567C221.318 281.889 222.218 283.878 220.891 287.289C218.76 292.689 217.007 298.279 214.544 305.29C205.638 296.953 197.68 289.563 190.29 282.646C182 289.752 174.184 297.853 165.088 304.106C137.992 322.77 107.391 327.696 75.1785 325.28C69.9203 324.901 64.6149 324.238 59.4514 323.196C57.8882 322.864 55.6143 321.112 55.3775 319.738C51.4931 298.089 51.1614 276.441 56.3722 254.934C56.5143 254.413 56.9408 253.987 57.3671 253.419C63.9043 255.929 70.3466 258.393 76.2206 260.666C75.5101 274.878 74.7995 288.757 74.0416 303.3C102.369 305.763 127.95 301.974 151.114 287.336C174.847 272.367 186.737 250.008 188.963 222.012C189.485 222.201 190.053 222.343 190.621 222.486Z" fill="white"/>
<path d="M379.82 188.283C366.13 207.989 350.355 224.332 329.986 236.838C326.907 230.064 323.97 223.622 321.364 217.89C332.023 208.321 342.35 198.989 353.055 189.325C334.818 167.677 314.211 152.234 287.399 146.123C259.688 139.775 235.576 147.686 214.022 165.734C213.785 165.308 213.548 164.882 213.264 164.408C215.301 161.329 217.148 158.155 219.328 155.218C230.602 139.965 235.481 122.816 234.107 103.963C233.823 100.173 234.865 97.9465 238.323 96.4306C243.487 94.2042 248.508 91.6463 255.045 88.5198C255.045 100.599 255.045 111.21 255.045 122.437C310.943 118.648 349.124 146.075 379.82 188.283Z" fill="#039D55"/>
<path d="M474.595 101.635L475.288 130.106H472.705C471.487 122.967 468.485 117.235 463.698 112.91C458.953 108.543 453.809 106.359 448.266 106.359C443.982 106.359 440.581 107.514 438.062 109.824C435.584 112.091 434.345 114.716 434.345 117.697C434.345 119.587 434.786 121.267 435.668 122.736C436.886 124.71 438.838 126.663 441.526 128.594C443.5 129.98 448.056 132.437 455.194 135.964C465.188 140.877 471.928 145.517 475.414 149.884C478.857 154.251 480.579 159.249 480.579 164.875C480.579 172.014 477.786 178.166 472.201 183.331C466.658 188.454 459.604 191.016 451.037 191.016C448.35 191.016 445.809 190.743 443.416 190.197C441.022 189.651 438.02 188.622 434.408 187.11C432.393 186.271 430.734 185.851 429.432 185.851C428.34 185.851 427.186 186.271 425.968 187.11C424.75 187.95 423.763 189.231 423.007 190.953H420.677V158.703H423.007C424.855 167.773 428.403 174.702 433.652 179.489C438.943 184.234 444.633 186.606 450.722 186.606C455.425 186.606 459.163 185.326 461.934 182.764C464.748 180.203 466.154 177.221 466.154 173.82C466.154 171.804 465.608 169.852 464.517 167.962C463.467 166.072 461.85 164.288 459.667 162.608C457.483 160.886 453.62 158.661 448.077 155.931C440.308 152.11 434.723 148.855 431.322 146.168C427.92 143.48 425.296 140.478 423.448 137.161C421.643 133.843 420.74 130.19 420.74 126.201C420.74 119.398 423.238 113.603 428.235 108.816C433.232 104.029 439.531 101.635 447.132 101.635C449.903 101.635 452.591 101.971 455.194 102.643C457.168 103.147 459.562 104.092 462.375 105.478C465.23 106.821 467.225 107.493 468.359 107.493C469.451 107.493 470.312 107.157 470.941 106.485C471.571 105.813 472.159 104.197 472.705 101.635H474.595ZM519.757 189V186.669H522.592C525.069 186.669 526.959 186.292 528.261 185.536C529.604 184.738 530.591 183.667 531.221 182.323C531.599 181.441 531.788 178.796 531.788 174.387V118.201C531.788 113.834 531.557 111.104 531.095 110.013C530.633 108.921 529.688 107.976 528.261 107.178C526.875 106.338 524.985 105.918 522.592 105.918H519.757V103.588H557.991C568.195 103.588 576.405 104.974 582.62 107.745C590.22 111.146 595.973 116.291 599.878 123.177C603.826 130.064 605.799 137.854 605.799 146.546C605.799 152.551 604.833 158.094 602.902 163.175C600.97 168.214 598.472 172.392 595.406 175.709C592.341 178.985 588.792 181.63 584.761 183.646C580.772 185.62 575.88 187.152 570.085 188.244C567.523 188.748 563.492 189 557.991 189H519.757ZM552.322 108.438V175.08C552.322 178.607 552.49 180.77 552.826 181.567C553.162 182.365 553.729 182.974 554.527 183.394C555.661 184.024 557.298 184.339 559.44 184.339C566.453 184.339 571.807 181.945 575.502 177.158C580.541 170.691 583.061 160.655 583.061 147.05C583.061 136.09 581.339 127.334 577.896 120.784C575.166 115.661 571.66 112.175 567.376 110.328C564.353 109.026 559.335 108.396 552.322 108.438ZM705.006 159.899L728.186 103.588H762.955V105.918H760.184C757.664 105.918 755.648 106.359 754.137 107.241C753.087 107.829 752.247 108.816 751.617 110.202C751.155 111.209 750.924 113.834 750.924 118.075V174.387C750.924 178.754 751.155 181.483 751.617 182.575C752.079 183.667 753.024 184.633 754.452 185.473C755.879 186.271 757.79 186.669 760.184 186.669H762.955V189H718.359V186.669H721.131C723.65 186.669 725.666 186.229 727.178 185.347C728.228 184.759 729.067 183.751 729.697 182.323C730.159 181.315 730.39 178.67 730.39 174.387V111.083L697.636 189H696.125L662.867 111.65V171.804C662.867 176.003 662.972 178.586 663.182 179.552C663.728 181.651 664.903 183.373 666.709 184.717C668.557 186.019 671.433 186.669 675.338 186.669V189H646.112V186.669H646.994C648.883 186.711 650.647 186.417 652.285 185.788C653.922 185.116 655.161 184.234 656.001 183.142C656.841 182.05 657.492 180.518 657.954 178.544C658.038 178.082 658.08 175.94 658.08 172.119V118.075C658.08 113.75 657.849 111.062 657.387 110.013C656.925 108.921 655.98 107.976 654.552 107.178C653.125 106.338 651.214 105.918 648.82 105.918H646.112V103.588H681.007L705.006 159.899Z" fill="#039D55"/>
<path d="M449.462 243.501V278.585H451.919C455.698 278.585 458.785 278.019 461.178 276.885C463.572 275.751 465.587 273.84 467.225 271.153C468.905 268.465 469.997 264.833 470.5 260.256H472.705V303.151H470.5C469.703 295.046 467.519 289.713 463.95 287.152C460.422 284.548 456.412 283.247 451.919 283.247H449.462V309.387C449.462 313.754 449.693 316.483 450.155 317.575C450.659 318.667 451.604 319.633 452.99 320.473C454.417 321.271 456.328 321.669 458.722 321.669H461.556V324H416.897V321.669H419.732C422.209 321.669 424.204 321.229 425.716 320.347C426.808 319.759 427.647 318.751 428.235 317.323C428.697 316.315 428.928 313.67 428.928 309.387V253.201C428.928 248.834 428.697 246.104 428.235 245.013C427.773 243.921 426.829 242.976 425.401 242.178C424.015 241.338 422.125 240.918 419.732 240.918H416.897V238.588H488.956V263.09H486.374C485.786 257.337 484.274 253.075 481.838 250.304C479.445 247.532 475.959 245.58 471.382 244.446C468.863 243.816 464.202 243.501 457.399 243.501H449.462ZM606.555 294.018L603.343 324H527.505V321.669H530.339C532.817 321.669 534.812 321.229 536.323 320.347C537.415 319.759 538.255 318.751 538.843 317.323C539.305 316.315 539.536 313.67 539.536 309.387V253.201C539.536 248.834 539.305 246.104 538.843 245.013C538.381 243.921 537.436 242.976 536.008 242.178C534.623 241.338 532.733 240.918 530.339 240.918H527.505V238.588H573.045V240.918H569.329C566.852 240.918 564.857 241.359 563.345 242.241C562.253 242.829 561.393 243.837 560.763 245.265C560.301 246.272 560.07 248.918 560.07 253.201V307.623C560.07 311.99 560.322 314.783 560.826 316C561.33 317.176 562.316 318.058 563.786 318.646C564.836 319.024 567.376 319.213 571.408 319.213H578.525C583.061 319.213 586.84 318.415 589.863 316.819C592.887 315.224 595.49 312.704 597.674 309.261C599.899 305.817 601.999 300.736 603.973 294.018H606.555ZM693.227 237.391C706.833 236.887 717.876 240.855 726.359 249.296C734.883 257.736 739.146 268.297 739.146 280.979C739.146 291.813 735.975 301.345 729.634 309.576C721.236 320.494 709.373 325.953 694.046 325.953C678.677 325.953 666.793 320.746 658.395 310.332C651.76 302.101 648.442 292.338 648.442 281.042C648.442 268.36 652.747 257.799 661.355 249.359C670.005 240.876 680.629 236.887 693.227 237.391ZM693.983 241.422C686.172 241.422 680.23 245.412 676.157 253.39C672.84 259.941 671.181 269.347 671.181 281.609C671.181 296.18 673.743 306.951 678.866 313.922C682.435 318.793 687.432 321.229 693.857 321.229C698.182 321.229 701.793 320.179 704.691 318.079C708.386 315.392 711.263 311.108 713.32 305.229C715.378 299.309 716.407 291.603 716.407 282.113C716.407 270.817 715.357 262.376 713.257 256.792C711.158 251.165 708.47 247.196 705.195 244.887C701.961 242.577 698.224 241.422 693.983 241.422ZM903.923 238.588V240.918C902.327 241.044 900.983 241.485 899.892 242.241C898.8 242.997 897.834 244.152 896.994 245.706C896.742 246.209 895.419 249.464 893.026 255.469L866.256 325.953H863.799L842.635 270.901L819.33 325.953H816.999L788.906 256.225C786.051 249.212 784.056 244.971 782.922 243.501C781.789 242.031 779.878 241.17 777.19 240.918V238.588H814.228V240.918C811.246 241.002 809.251 241.464 808.244 242.304C807.278 243.102 806.795 244.11 806.795 245.328C806.795 246.923 807.824 250.304 809.881 255.469L826.636 296.915L840.053 264.539L836.525 255.469C834.594 250.514 833.103 247.217 832.053 245.58C831.003 243.9 829.786 242.703 828.4 241.989C827.056 241.275 825.062 240.918 822.416 240.918V238.588H863.799V240.918C860.902 240.96 858.823 241.191 857.563 241.611C856.682 241.905 855.989 242.409 855.485 243.123C854.981 243.795 854.729 244.572 854.729 245.454C854.729 246.419 855.674 249.38 857.563 254.335L873.122 294.773L887.042 258.177C888.512 254.398 889.415 251.815 889.75 250.43C890.086 249.044 890.254 247.763 890.254 246.587C890.254 244.866 889.667 243.522 888.491 242.556C887.315 241.548 885.068 241.002 881.751 240.918V238.588H903.923ZM972.454 243.501V278.271H974.155C979.572 278.271 983.498 276.57 985.934 273.168C988.369 269.767 989.923 264.749 990.595 258.114H992.988V302.836H990.595C990.091 297.965 989.02 293.976 987.382 290.868C985.787 287.761 983.918 285.682 981.776 284.632C979.635 283.541 976.527 282.995 972.454 282.995V307.056C972.454 311.759 972.643 314.636 973.021 315.686C973.441 316.735 974.197 317.596 975.289 318.268C976.38 318.94 978.144 319.276 980.58 319.276H985.682C993.66 319.276 1000.04 317.428 1004.83 313.733C1009.66 310.038 1013.12 304.411 1015.22 296.852H1017.55L1013.71 324H939.889V321.669H942.724C945.201 321.669 947.196 321.229 948.708 320.347C949.799 319.759 950.639 318.751 951.227 317.323C951.689 316.315 951.92 313.67 951.92 309.387V253.201C951.92 249.338 951.815 246.965 951.605 246.083C951.185 244.614 950.408 243.48 949.274 242.682C947.679 241.506 945.495 240.918 942.724 240.918H939.889V238.588H1011.38V263.846H1008.99C1007.77 257.673 1006.05 253.243 1003.82 250.556C1001.64 247.868 998.531 245.895 994.5 244.635C992.148 243.879 987.739 243.501 981.272 243.501H972.454ZM1089.86 285.073V309.009C1089.86 313.628 1090.14 316.546 1090.68 317.764C1091.27 318.94 1092.28 319.885 1093.71 320.599C1095.13 321.312 1097.8 321.669 1101.71 321.669V324H1057.99V321.669C1061.94 321.669 1064.61 321.312 1065.99 320.599C1067.42 319.843 1068.41 318.877 1068.95 317.701C1069.54 316.525 1069.83 313.628 1069.83 309.009V253.579C1069.83 248.96 1069.54 246.062 1068.95 244.887C1068.41 243.669 1067.42 242.703 1065.99 241.989C1064.56 241.275 1061.9 240.918 1057.99 240.918V238.588H1097.67C1108 238.588 1115.56 239.302 1120.35 240.729C1125.14 242.157 1129.04 244.803 1132.07 248.666C1135.09 252.487 1136.6 256.98 1136.6 262.146C1136.6 268.444 1134.33 273.651 1129.8 277.767C1126.9 280.37 1122.85 282.323 1117.64 283.625L1138.18 312.536C1140.86 316.273 1142.77 318.604 1143.91 319.528C1145.63 320.83 1147.62 321.543 1149.89 321.669V324H1123L1095.47 285.073H1089.86ZM1089.86 243.186V280.601H1093.45C1099.29 280.601 1103.66 280.076 1106.56 279.026C1109.45 277.935 1111.72 276.003 1113.36 273.231C1115.04 270.418 1115.88 266.765 1115.88 262.271C1115.88 255.763 1114.35 250.955 1111.28 247.847C1108.26 244.74 1103.36 243.186 1096.6 243.186H1089.86ZM1241.67 236.635L1242.36 265.106H1239.78C1238.56 257.967 1235.56 252.235 1230.77 247.91C1226.02 243.543 1220.88 241.359 1215.34 241.359C1211.05 241.359 1207.65 242.514 1205.13 244.824C1202.66 247.091 1201.42 249.716 1201.42 252.697C1201.42 254.587 1201.86 256.267 1202.74 257.736C1203.96 259.71 1205.91 261.663 1208.6 263.594C1210.57 264.98 1215.13 267.437 1222.27 270.964C1232.26 275.877 1239 280.517 1242.48 284.884C1245.93 289.251 1247.65 294.249 1247.65 299.875C1247.65 307.014 1244.86 313.166 1239.27 318.331C1233.73 323.454 1226.67 326.016 1218.11 326.016C1215.42 326.016 1212.88 325.743 1210.49 325.197C1208.09 324.651 1205.09 323.622 1201.48 322.11C1199.46 321.271 1197.81 320.851 1196.5 320.851C1195.41 320.851 1194.26 321.271 1193.04 322.11C1191.82 322.95 1190.83 324.231 1190.08 325.953H1187.75V293.703H1190.08C1191.93 302.773 1195.47 309.702 1200.72 314.489C1206.01 319.234 1211.7 321.606 1217.79 321.606C1222.5 321.606 1226.23 320.326 1229.01 317.764C1231.82 315.203 1233.23 312.221 1233.23 308.82C1233.23 306.804 1232.68 304.852 1231.59 302.962C1230.54 301.072 1228.92 299.288 1226.74 297.608C1224.55 295.886 1220.69 293.661 1215.15 290.931C1207.38 287.11 1201.79 283.855 1198.39 281.168C1194.99 278.48 1192.37 275.478 1190.52 272.161C1188.71 268.843 1187.81 265.19 1187.81 261.201C1187.81 254.398 1190.31 248.603 1195.31 243.816C1200.3 239.029 1206.6 236.635 1214.2 236.635C1216.97 236.635 1219.66 236.971 1222.27 237.643C1224.24 238.147 1226.63 239.092 1229.45 240.478C1232.3 241.821 1234.3 242.493 1235.43 242.493C1236.52 242.493 1237.38 242.157 1238.01 241.485C1238.64 240.813 1239.23 239.197 1239.78 236.635H1241.67Z" fill="white"/>
</svg>
