<svg width="381" height="378" viewBox="0 0 381 378" fill="none" xmlns="http://www.w3.org/2000/svg">
<path d="M304.626 116.651C305.336 102.298 306.047 88.4179 306.805 74.1119C278.43 71.6486 252.849 75.2963 229.638 90.0286C205.952 105.045 194.157 127.404 191.836 155.306C191.315 155.164 190.794 155.069 190.225 154.927C189.325 150.616 188.33 146.353 187.62 141.994C184.635 124.23 175.966 109.735 162.561 98.0342C159.529 95.4288 158.439 93.1076 160.002 89.3179C162.134 84.1545 163.839 78.8016 166.303 71.9802C175.208 80.2701 183.025 87.5653 191.22 95.192C193.636 92.5866 196.336 89.5075 199.226 86.6179C220.211 65.5852 246.075 54.5951 275.256 52.4634C290.414 51.3739 305.81 53.2687 321.063 54.1214C322.674 54.2161 325.232 56.2531 325.516 57.7216C329.353 79.3701 329.59 101.019 324.474 122.525C324.379 122.857 324.048 123.141 323.574 123.804C317.037 121.341 310.452 118.83 304.626 116.651Z" fill="#41303C"/>
<path d="M0.978577 189.035C14.4793 169.376 30.2538 152.843 50.8127 140.432C53.8918 147.206 56.8289 153.649 59.4817 159.428C48.8232 169.044 38.4963 178.329 27.7431 187.993C46.0757 209.594 66.6346 225.131 93.4465 231.148C121.159 237.4 145.365 229.726 166.872 211.441C167.156 211.868 167.44 212.341 167.725 212.768C165.688 215.799 163.745 218.926 161.566 221.863C150.292 237.116 145.366 254.217 146.692 273.071C146.976 277.145 145.697 279.466 142.192 281.029C137.218 283.256 132.338 285.624 125.896 288.608C125.896 276.624 125.896 266.013 125.896 254.738C70.0927 258.765 31.8644 231.384 0.978577 189.035Z" fill="#039D55"/>
<path d="M126.133 55.6852C123.432 62.6961 120.969 69.1859 118.695 75.0599C104.484 74.3493 90.604 73.6861 76.2032 72.9755C73.5978 101.161 77.4348 126.647 92.0251 149.859C107.137 173.923 129.827 185.481 157.918 187.897C157.776 188.371 157.634 188.845 157.492 189.319C153.418 190.171 149.344 191.119 145.223 191.782C126.843 194.719 111.827 203.577 99.7466 217.457C97.3306 220.204 95.2463 221.057 91.9777 219.825C86.5774 217.789 81.0824 215.846 74.1189 213.288C82.4088 204.383 89.7039 196.519 97.0464 188.655C91.6461 182.971 85.251 177.286 80.0402 170.654C58.3444 143.037 51.7125 111.014 53.8441 76.6705C54.1757 71.4123 55.2179 66.1541 55.5022 60.8486C55.739 56.1589 57.5391 54.0271 62.4657 53.3639C82.1246 50.7112 101.689 50.1901 121.206 54.3114C122.674 54.7377 124.096 55.1641 126.133 55.6852Z" fill="#41303C"/>
<path d="M143.092 328.589C149.439 325.747 155.645 322.952 161.519 320.299C170.946 330.768 180.373 341.189 190.084 351.943C211.732 333.705 227.222 313.051 233.286 286.287C239.539 258.575 231.912 234.368 213.532 212.909C214.006 212.625 214.432 212.293 214.906 212.009C217.796 213.951 220.78 215.751 223.575 217.836C238.923 229.252 256.166 234.368 275.256 232.947C279.046 232.663 281.367 233.61 282.931 237.068C285.252 242.232 287.715 247.3 290.842 253.932C278.904 253.932 268.245 253.932 257.398 253.932C257.161 255.732 256.829 256.822 256.877 257.864C259.814 298.461 243.423 331.147 215.19 358.764C208.606 365.206 201.074 370.749 193.779 376.481C192.642 377.381 189.989 377.855 188.994 377.144C170.756 364.212 154.697 349.148 143.186 329.773C143.092 329.584 143.139 329.347 143.092 328.589Z" fill="#039D55"/>
<path d="M92.7366 123.473C103.253 123.473 113.77 123.473 124.476 123.473C124.712 121.768 125.044 120.868 124.949 120.015C121.965 80.6023 137.36 48.39 164.409 21.057C171.562 13.8566 179.852 7.69854 187.81 1.35084C189.042 0.403427 191.979 -0.0703048 193.069 0.735C211.259 13.4304 226.891 28.6365 238.545 47.6796C238.734 47.9638 238.592 48.3901 238.687 49.1481C232.481 51.943 226.134 54.7852 220.26 57.3906C210.88 46.969 201.595 36.642 191.79 25.7941C170.094 43.8424 154.746 64.4488 148.587 91.166C142.192 118.925 149.866 143.179 168.152 164.638C167.725 164.97 167.346 165.302 166.92 165.633C164.883 164.307 162.751 163.075 160.809 161.559C144.182 148.864 125.565 142.848 104.58 144.553C103.206 144.648 100.98 143.89 100.411 142.8C97.2368 137.068 94.4893 131.147 91.5523 125.273C91.9787 124.657 92.3576 124.042 92.7366 123.473Z" fill="#039D55"/>
<path d="M284.351 189.366C308.984 209.309 322.106 235.836 326.748 266.959C329.353 284.581 328.548 302.109 325.564 319.541C325.327 321.01 323.764 322.952 322.39 323.378C307.373 327.926 271.087 326.884 255.786 321.625C258.25 315.136 260.713 308.693 263.318 301.871C270.187 302.677 277.103 303.766 284.02 304.193C290.983 304.572 297.994 304.287 305.573 304.287C308.226 276.528 304.389 251.09 289.799 227.831C274.64 203.672 251.997 192.066 224.048 188.466C228.738 187.471 233.38 186.287 238.07 185.481C255.834 182.497 270.235 173.639 281.888 160.185C284.209 157.485 286.293 156.585 289.609 157.817C295.01 159.854 300.505 161.701 307.658 164.259C299.368 173.212 292.12 181.028 284.351 189.366Z" fill="#41303C"/>
<path d="M191.6 222.811C192.642 228.353 193.59 233.943 194.822 239.438C198.517 255.686 206.949 269.139 219.549 279.892C222.297 282.214 223.197 284.203 221.87 287.614C219.739 293.014 217.986 298.604 215.523 305.615C206.617 297.278 198.659 289.888 191.269 282.971C182.979 290.077 175.163 298.178 166.067 304.431C138.971 323.095 108.37 328.021 76.1571 325.605C70.8989 325.226 65.5935 324.563 60.43 323.521C58.8668 323.189 56.5929 321.437 56.3561 320.063C52.4717 298.414 52.14 276.766 57.3508 255.259C57.4929 254.738 57.9194 254.312 58.3457 253.744C64.8829 256.254 71.3252 258.718 77.1992 260.991C76.4887 275.203 75.7781 289.082 75.0202 303.625C103.348 306.088 128.929 302.299 152.093 287.661C175.826 272.692 187.716 250.333 189.942 222.337C190.464 222.526 191.032 222.668 191.6 222.811Z" fill="#41303C"/>
<path d="M380.799 188.608C367.109 208.314 351.334 224.657 330.965 237.163C327.886 230.389 324.949 223.947 322.343 218.215C333.002 208.646 343.329 199.314 354.034 189.65C335.797 168.002 315.19 152.559 288.378 146.448C260.667 140.1 236.555 148.011 215.001 166.059C214.764 165.633 214.527 165.207 214.243 164.733C216.28 161.654 218.127 158.48 220.307 155.543C231.581 140.29 236.46 123.141 235.086 104.288C234.802 100.498 235.844 98.2714 239.302 96.7555C244.466 94.5291 249.487 91.9712 256.024 88.8447C256.024 100.924 256.024 111.535 256.024 122.762C311.922 118.973 350.103 146.4 380.799 188.608Z" fill="#039D55"/>
</svg>
